<svg xmlns="http://www.w3.org/2000/svg" width="50" height="50" viewBox="0 0 50 50">
  <g id="Group_4393" data-name="Group 4393" transform="translate(-317 -1595)">
    <path id="Path_2900" data-name="Path 2900" d="M50,25A25,25,0,1,1,25,0,25,25,0,0,1,50,25" transform="translate(317 1595)" fill="#12bcff"/>
    <g id="Group_4390" data-name="Group 4390">
      <path id="Path_2901" data-name="Path 2901" d="M21.5,15A6.5,6.5,0,1,0,28,21.5,6.5,6.5,0,0,0,21.5,15m1.867,9.686a2.284,2.284,0,0,1-1.447.626v.579a.4.4,0,0,1-.4.4.4.4,0,0,1-.4-.4v-.579a2.3,2.3,0,0,1-1.532-.71,2.047,2.047,0,0,1-.448-.859.6.6,0,0,1,.6-.747.611.611,0,0,1,.588.457,1.079,1.079,0,0,0,.271.523,1.143,1.143,0,0,0,.9.355,1.238,1.238,0,0,0,.878-.28,1.05,1.05,0,0,0,.028-1.438,2.431,2.431,0,0,0-.906-.5,7.008,7.008,0,0,1-.99-.42,2.009,2.009,0,0,1-1.167-1.859,1.914,1.914,0,0,1,.5-1.372,2.141,2.141,0,0,1,1.382-.645v-.691a.4.4,0,0,1,.8,0v.7a1.984,1.984,0,0,1,1.354.747,2.192,2.192,0,0,1,.4.868.607.607,0,0,1-1.186.262,1.4,1.4,0,0,0-.243-.533.924.924,0,0,0-.766-.364,1.061,1.061,0,0,0-.756.262.986.986,0,0,0-.271.756.941.941,0,0,0,.262.7,2.674,2.674,0,0,0,.915.505,7.707,7.707,0,0,1,1.018.429,2.7,2.7,0,0,1,.616.467,1.684,1.684,0,0,1,.383.6,2.032,2.032,0,0,1,.14.784,1.893,1.893,0,0,1-.523,1.382" transform="translate(317 1595)" fill="#fff"/>
      <path id="Path_2902" data-name="Path 2902" d="M16.994,35H15.431A.431.431,0,0,1,15,34.57V29.409a.431.431,0,0,1,.431-.431h1.563a.43.43,0,0,1,.43.431V34.57a.43.43,0,0,1-.43.43" transform="translate(317 1595)" fill="#fff"/>
      <path id="Path_2903" data-name="Path 2903" d="M21.388,35H19.825a.431.431,0,0,1-.431-.43v-3.9a.43.43,0,0,1,.431-.43h1.563a.429.429,0,0,1,.43.43v3.9a.43.43,0,0,1-.43.43" transform="translate(317 1595)" fill="#fff"/>
      <path id="Path_2904" data-name="Path 2904" d="M25.782,35H24.219a.431.431,0,0,1-.431-.43V29.938a.43.43,0,0,1,.431-.43h1.563a.429.429,0,0,1,.43.43V34.57a.43.43,0,0,1-.43.43" transform="translate(317 1595)" fill="#fff"/>
      <path id="Path_2905" data-name="Path 2905" d="M30.176,35H28.613a.431.431,0,0,1-.431-.43V26.723a.43.43,0,0,1,.431-.43h1.563a.429.429,0,0,1,.43.43V34.57a.43.43,0,0,1-.43.43" transform="translate(317 1595)" fill="#fff"/>
      <path id="Path_2906" data-name="Path 2906" d="M34.57,35H33.007a.431.431,0,0,1-.431-.43V18.4a.431.431,0,0,1,.431-.431H34.57A.43.43,0,0,1,35,18.4V34.57a.43.43,0,0,1-.43.43" transform="translate(317 1595)" fill="#fff"/>
    </g>
  </g>
</svg>
