<svg xmlns="http://www.w3.org/2000/svg" width="50" height="50" viewBox="0 0 50 50">
  <g id="Group_4392" data-name="Group 4392" transform="translate(-281 -1656)">
    <path id="Path_2907" data-name="Path 2907" d="M50,25A25,25,0,1,1,25,0,25,25,0,0,1,50,25" transform="translate(281 1656)" fill="#4ece30"/>
    <g id="Group_4391" data-name="Group 4391">
      <path id="Path_2908" data-name="Path 2908" d="M19.409,15a4.6,4.6,0,1,0,4.414,4.6A4.511,4.511,0,0,0,19.409,15m1.267,6.848a1.52,1.52,0,0,1-.982.442v.41a.281.281,0,0,1-.273.284.277.277,0,0,1-.273-.284v-.41a1.536,1.536,0,0,1-1.039-.5,1.473,1.473,0,0,1-.3-.608.415.415,0,1,1,.805-.2.775.775,0,0,0,.183.369.765.765,0,0,0,.609.251.82.82,0,0,0,.6-.2.765.765,0,0,0,.019-1.017,1.647,1.647,0,0,0-.615-.356,4.6,4.6,0,0,1-.672-.3,1.426,1.426,0,0,1-.792-1.314,1.386,1.386,0,0,1,.342-.97,1.427,1.427,0,0,1,.938-.456V16.5a.273.273,0,1,1,.545,0V17a1.33,1.33,0,0,1,.919.528,1.58,1.58,0,0,1,.273.614.425.425,0,0,1-.406.515.412.412,0,0,1-.4-.33,1.011,1.011,0,0,0-.165-.377.618.618,0,0,0-.52-.257.7.7,0,0,0-.513.185.714.714,0,0,0-.184.535.683.683,0,0,0,.178.495,1.8,1.8,0,0,0,.621.356,5.154,5.154,0,0,1,.691.3,1.847,1.847,0,0,1,.418.33,1.2,1.2,0,0,1,.26.422,1.5,1.5,0,0,1,.095.555,1.369,1.369,0,0,1-.355.977" transform="translate(281 1656)" fill="#fff"/>
      <path id="Path_2909" data-name="Path 2909" d="M28.553,20.28a5.947,5.947,0,0,0-5.008,6.669,5.8,5.8,0,0,0,6.4,5.224,5.943,5.943,0,0,0,5.015-6.67,5.809,5.809,0,0,0-6.4-5.223m2.674,8.65a2,2,0,0,1-1.2.733l.062.53a.37.37,0,0,1-.31.412.356.356,0,0,1-.4-.323l-.062-.529a1.986,1.986,0,0,1-1.421-.479,1.9,1.9,0,0,1-.485-.736.557.557,0,0,1,.445-.749.536.536,0,0,1,.565.353,1,1,0,0,0,.294.448.986.986,0,0,0,.825.224,1.079,1.079,0,0,0,.741-.353.923.923,0,0,0,.183-.708.906.906,0,0,0-.312-.611,2.109,2.109,0,0,0-.849-.36,5.922,5.922,0,0,1-.914-.274,1.956,1.956,0,0,1-.928-2.881,1.892,1.892,0,0,1,1.145-.743l-.074-.632a.364.364,0,0,1,.31-.412.356.356,0,0,1,.4.323l.075.64a1.725,1.725,0,0,1,1.269.533,2.021,2.021,0,0,1,.445.749.56.56,0,0,1-.447.733.53.53,0,0,1-.566-.362,1.3,1.3,0,0,0-.27-.459.794.794,0,0,0-.712-.248.925.925,0,0,0-.636.323.94.94,0,0,0-.157.722.878.878,0,0,0,.305.611,2.315,2.315,0,0,0,.857.359,6.78,6.78,0,0,1,.94.28,2.367,2.367,0,0,1,.591.358,1.554,1.554,0,0,1,.4.5,1.911,1.911,0,0,1,.206.7,1.8,1.8,0,0,1-.311,1.322" transform="translate(281 1656)" fill="#fff"/>
      <path id="Path_2910" data-name="Path 2910" d="M25.27,33.368v1.2a.43.43,0,0,1-.43.43h-6.6a.43.43,0,0,1-.43-.43v-1.2a.43.43,0,0,1,.43-.43h6.6a.43.43,0,0,1,.43.43" transform="translate(281 1656)" fill="#fff"/>
      <path id="Path_2911" data-name="Path 2911" d="M23.513,30.307v1.2a.43.43,0,0,1-.43.43h-6.6a.43.43,0,0,1-.43-.43v-1.2a.43.43,0,0,1,.43-.43h6.6a.43.43,0,0,1,.43.43" transform="translate(281 1656)" fill="#fff"/>
      <path id="Path_2912" data-name="Path 2912" d="M22.457,27.247v1.2a.43.43,0,0,1-.43.43h-6.6a.43.43,0,0,1-.43-.43v-1.2a.43.43,0,0,1,.43-.43h6.6a.43.43,0,0,1,.43.43" transform="translate(281 1656)" fill="#fff"/>
    </g>
  </g>
</svg>
