<?xml version="1.0" encoding="utf-8"?>
<!-- Generator: Adobe Illustrator 27.5.0, SVG Export Plug-In . SVG Version: 6.00 Build 0)  -->
<svg version="1.1" id="Layer_1" xmlns="http://www.w3.org/2000/svg" xmlns:xlink="http://www.w3.org/1999/xlink" x="0px" y="0px"
	 viewBox="0 0 300 300" style="enable-background:new 0 0 300 300;" xml:space="preserve">
<style type="text/css">
	.st0{opacity:0.1;}
	.st1{fill:#6C6CFF;}
</style>
<g id="Group_2004" transform="translate(-6771.202 -2909.568)" class="st0">
	<path id="Path_317" class="st1" d="M6921.2,3041.8c36.5,0,66.1-29.6,66.1-66.1s-29.6-66.1-66.1-66.1c-36.5,0-66.1,29.6-66.1,66.1
		c0,0,0,0,0,0C6855.1,3012.2,6884.7,3041.8,6921.2,3041.8"/>
	<path id="Path_318" class="st1" d="M7071.2,3209.6c-0.1-82.9-67.3-150.1-150.3-150c-10.2,0-20.4,1.1-30.4,3.1
		c-26.9-27.5-71-27.9-98.4-1c-24.1,23.6-27.8,61-8.9,88.9c-8,18.7-12.1,38.7-12.1,59H7071.2z M6780,3111.4
		c0-33.6,27.2-60.9,60.8-60.9c33.6,0,60.9,27.2,60.9,60.8s-27.2,60.9-60.8,60.9c-22,0-42.4-11.9-53.1-31.1
		C6782.7,3132,6780,3121.8,6780,3111.4"/>
	<path id="Path_319" class="st1" d="M6800.5,3119.8h46.2v19.4c0,1.7,1.4,3.1,3.1,3.1c0.7,0,1.5-0.3,2-0.8l31.9-27.8
		c1.3-1.1,1.4-3.1,0.3-4.3c-0.1-0.1-0.2-0.2-0.3-0.3l-31.9-27.8c-1.3-1.1-3.2-1-4.3,0.3c-0.5,0.6-0.8,1.3-0.8,2v19.4h-46.2
		c-2,0-3.6,1.6-3.6,3.6c0,0,0,0,0,0v9.7C6796.9,3118.2,6798.5,3119.8,6800.5,3119.8C6800.5,3119.8,6800.5,3119.8,6800.5,3119.8"/>
</g>
</svg>
