<svg xmlns="http://www.w3.org/2000/svg" width="51" height="51" viewBox="0 0 51 51">
  <g id="Group_6538" data-name="Group 6538" transform="translate(-7786.912 -2835)">
    <path id="Path_5205" data-name="Path 5205" d="M262.412.5h0a25,25,0,1,1-25,25,25,25,0,0,1,25-25" transform="translate(7550 2835)" fill="#f0f0ff"/>
    <path id="Path_5206" data-name="Path 5206" d="M262.412.5h0a25,25,0,1,1-25,25A25,25,0,0,1,262.412.5Z" transform="translate(7550 2835)" fill="none" stroke="#b5b5ff" stroke-miterlimit="10" stroke-width="1"/>
    <g id="Group_6533" data-name="Group 6533">
      <path id="Path_5207" data-name="Path 5207" d="M262.306,19.1a3.6,3.6,0,1,1-3.6-3.6,3.6,3.6,0,0,1,3.6,3.6" transform="translate(7550 2835)" fill="#6c6cff"/>
      <path id="Path_5208" data-name="Path 5208" d="M259.215,25.46a4.245,4.245,0,0,1,.324-1.631,6.817,6.817,0,0,0-.829-.054,6.36,6.36,0,0,0-6.289,5.405.828.828,0,0,0,.809.956h6.12a6.636,6.636,0,0,1,1.894-1.037,4.288,4.288,0,0,1-2.029-3.639" transform="translate(7550 2835)" fill="#6c6cff"/>
      <path id="Path_5209" data-name="Path 5209" d="M267.262,19.516a2.957,2.957,0,0,0-2.716,1.792,4.268,4.268,0,0,1,3.228,4.043,2.939,2.939,0,0,0-.512-5.835" transform="translate(7550 2835)" fill="#6c6cff"/>
      <path id="Path_5210" data-name="Path 5210" d="M267.7,26.3a4.293,4.293,0,0,1-1.954,2.8,6.913,6.913,0,0,1,3.221,2.386h2.777a.675.675,0,0,0,.66-.782,5.2,5.2,0,0,0-4.7-4.4" transform="translate(7550 2835)" fill="#6c6cff"/>
      <path id="Path_5211" data-name="Path 5211" d="M263.495,22.185a3.272,3.272,0,1,0,3.275,3.275,3.273,3.273,0,0,0-3.275-3.275" transform="translate(7550 2835)" fill="#6c6cff"/>
      <path id="Path_5212" data-name="Path 5212" d="M269.216,34.631a5.785,5.785,0,0,0-11.437,0,.745.745,0,0,0,.734.869h9.968a.753.753,0,0,0,.735-.869" transform="translate(7550 2835)" fill="#6c6cff"/>
    </g>
  </g>
</svg>
