<svg width="395" height="86" viewBox="0 0 395 86" fill="#f7fcfc" xmlns="http://www.w3.org/2000/svg">
<g clip-path="url(#clip0_335_152)">
<rect y="30" width="395" height="56" rx="2" stroke="#E9E9F0"/>
<path d="M7.19141 14.9268V16H2.21484V14.9268H7.19141ZM2.47461 6.04688V16H1.15527V6.04688H2.47461ZM12.8721 14.7354V10.9277C12.8721 10.6361 12.8128 10.3831 12.6943 10.1689C12.5804 9.9502 12.4072 9.78158 12.1748 9.66309C11.9424 9.5446 11.6553 9.48535 11.3135 9.48535C10.9945 9.48535 10.7142 9.54004 10.4727 9.64941C10.2357 9.75879 10.0488 9.90234 9.91211 10.0801C9.77995 10.2578 9.71387 10.4492 9.71387 10.6543H8.44922C8.44922 10.39 8.51758 10.1279 8.6543 9.86816C8.79102 9.6084 8.98698 9.3737 9.24219 9.16406C9.50195 8.94987 9.81185 8.78125 10.1719 8.6582C10.5365 8.5306 10.9421 8.4668 11.3887 8.4668C11.9264 8.4668 12.4004 8.55794 12.8105 8.74023C13.2253 8.92253 13.5488 9.19824 13.7812 9.56738C14.0182 9.93197 14.1367 10.39 14.1367 10.9414V14.3867C14.1367 14.6328 14.1572 14.8949 14.1982 15.1729C14.2438 15.4508 14.3099 15.6901 14.3965 15.8906V16H13.0771C13.0133 15.8542 12.9632 15.6605 12.9268 15.4189C12.8903 15.1729 12.8721 14.945 12.8721 14.7354ZM13.0908 11.5156L13.1045 12.4043H11.8262C11.4661 12.4043 11.1449 12.4339 10.8623 12.4932C10.5798 12.5479 10.3428 12.6322 10.1514 12.7461C9.95996 12.86 9.81413 13.0036 9.71387 13.1768C9.61361 13.3454 9.56348 13.5436 9.56348 13.7715C9.56348 14.0039 9.61589 14.2158 9.7207 14.4072C9.82552 14.5986 9.98275 14.7513 10.1924 14.8652C10.4066 14.9746 10.6686 15.0293 10.9785 15.0293C11.3659 15.0293 11.7077 14.9473 12.0039 14.7832C12.3001 14.6191 12.5348 14.4186 12.708 14.1816C12.8857 13.9447 12.9814 13.7145 12.9951 13.4912L13.5352 14.0996C13.5033 14.291 13.4167 14.5029 13.2754 14.7354C13.1341 14.9678 12.945 15.1911 12.708 15.4053C12.4756 15.6149 12.1976 15.7904 11.874 15.9316C11.555 16.0684 11.195 16.1367 10.7939 16.1367C10.2926 16.1367 9.85286 16.0387 9.47461 15.8428C9.10091 15.6468 8.80924 15.3848 8.59961 15.0566C8.39453 14.724 8.29199 14.3525 8.29199 13.9424C8.29199 13.5459 8.36947 13.1973 8.52441 12.8965C8.67936 12.5911 8.90267 12.3382 9.19434 12.1377C9.486 11.9326 9.83691 11.7777 10.2471 11.6729C10.6572 11.568 11.1152 11.5156 11.6211 11.5156H13.0908ZM16.1191 5.5H17.3906V14.5645L17.2812 16H16.1191V5.5ZM22.3877 12.2402V12.3838C22.3877 12.9215 22.3239 13.4206 22.1963 13.8809C22.0687 14.3366 21.8818 14.7331 21.6357 15.0703C21.3896 15.4076 21.0889 15.6696 20.7334 15.8564C20.3779 16.0433 19.9701 16.1367 19.5098 16.1367C19.0404 16.1367 18.6279 16.057 18.2725 15.8975C17.9215 15.7334 17.6253 15.4987 17.3838 15.1934C17.1423 14.888 16.9486 14.5189 16.8027 14.0859C16.6615 13.653 16.5635 13.1654 16.5088 12.623V11.9941C16.5635 11.4473 16.6615 10.9574 16.8027 10.5244C16.9486 10.0915 17.1423 9.72233 17.3838 9.41699C17.6253 9.1071 17.9215 8.8724 18.2725 8.71289C18.6234 8.54883 19.0312 8.4668 19.4961 8.4668C19.9609 8.4668 20.3734 8.55794 20.7334 8.74023C21.0934 8.91797 21.3942 9.17318 21.6357 9.50586C21.8818 9.83854 22.0687 10.2373 22.1963 10.7021C22.3239 11.1624 22.3877 11.6751 22.3877 12.2402ZM21.1162 12.3838V12.2402C21.1162 11.8711 21.082 11.5247 21.0137 11.2012C20.9453 10.873 20.8359 10.5859 20.6855 10.3398C20.5352 10.0892 20.3369 9.89323 20.0908 9.75195C19.8447 9.60612 19.5417 9.5332 19.1816 9.5332C18.8626 9.5332 18.5846 9.58789 18.3477 9.69727C18.1152 9.80664 17.917 9.95475 17.7529 10.1416C17.5889 10.3239 17.4544 10.5335 17.3496 10.7705C17.2493 11.0029 17.1742 11.2445 17.124 11.4951V13.1426C17.1969 13.4616 17.3154 13.7692 17.4795 14.0654C17.6481 14.3571 17.8714 14.5964 18.1494 14.7832C18.432 14.9701 18.7806 15.0635 19.1953 15.0635C19.5371 15.0635 19.8288 14.9951 20.0703 14.8584C20.3164 14.7171 20.5146 14.5234 20.665 14.2773C20.82 14.0312 20.9339 13.7464 21.0068 13.4229C21.0798 13.0993 21.1162 12.7529 21.1162 12.3838ZM27.0566 16.1367C26.5417 16.1367 26.0745 16.0501 25.6553 15.877C25.2406 15.6992 24.8828 15.4508 24.582 15.1318C24.2858 14.8128 24.0579 14.4346 23.8984 13.9971C23.7389 13.5596 23.6592 13.0811 23.6592 12.5615V12.2744C23.6592 11.6729 23.748 11.1374 23.9258 10.668C24.1035 10.194 24.3451 9.79297 24.6504 9.46484C24.9557 9.13672 25.3021 8.88835 25.6895 8.71973C26.0768 8.55111 26.4779 8.4668 26.8926 8.4668C27.4212 8.4668 27.877 8.55794 28.2598 8.74023C28.6471 8.92253 28.9639 9.17773 29.21 9.50586C29.4561 9.82943 29.6383 10.2122 29.7568 10.6543C29.8753 11.0918 29.9346 11.5703 29.9346 12.0898V12.6572H24.4111V11.625H28.6699V11.5293C28.6517 11.2012 28.5833 10.8822 28.4648 10.5723C28.3509 10.2624 28.1686 10.0072 27.918 9.80664C27.6673 9.60612 27.3255 9.50586 26.8926 9.50586C26.6055 9.50586 26.3411 9.56738 26.0996 9.69043C25.8581 9.80892 25.6507 9.98665 25.4775 10.2236C25.3044 10.4606 25.1699 10.75 25.0742 11.0918C24.9785 11.4336 24.9307 11.8278 24.9307 12.2744V12.5615C24.9307 12.9124 24.9785 13.2428 25.0742 13.5527C25.1745 13.8581 25.318 14.127 25.5049 14.3594C25.6963 14.5918 25.9264 14.7741 26.1953 14.9062C26.4688 15.0384 26.7786 15.1045 27.125 15.1045C27.5716 15.1045 27.9499 15.0133 28.2598 14.8311C28.5697 14.6488 28.8408 14.4049 29.0732 14.0996L29.8389 14.708C29.6794 14.9495 29.4766 15.1797 29.2305 15.3984C28.9844 15.6172 28.6813 15.7949 28.3213 15.9316C27.9658 16.0684 27.5443 16.1367 27.0566 16.1367ZM32.7852 5.5V16H31.5137V5.5H32.7852Z" fill="#343A46"/>
<path d="M18.5703 53.0469V63H17.251V53.0469H18.5703ZM22.043 57.1826V63H20.7783V55.6035H21.9746L22.043 57.1826ZM21.7422 59.0215L21.2158 59.001C21.2204 58.4951 21.2956 58.028 21.4414 57.5996C21.5872 57.1667 21.7923 56.7907 22.0566 56.4717C22.321 56.1527 22.6354 55.9066 23 55.7334C23.3691 55.5557 23.777 55.4668 24.2236 55.4668C24.5882 55.4668 24.9163 55.5169 25.208 55.6172C25.4997 55.7129 25.748 55.8678 25.9531 56.082C26.1628 56.2962 26.3223 56.5742 26.4316 56.916C26.541 57.2533 26.5957 57.6657 26.5957 58.1533V63H25.3242V58.1396C25.3242 57.7523 25.2673 57.4424 25.1533 57.21C25.0394 56.973 24.873 56.8021 24.6543 56.6973C24.4355 56.5879 24.1667 56.5332 23.8477 56.5332C23.5332 56.5332 23.2461 56.5993 22.9863 56.7314C22.7311 56.8636 22.5101 57.0459 22.3232 57.2783C22.141 57.5107 21.9974 57.7773 21.8926 58.0781C21.7923 58.3743 21.7422 58.6888 21.7422 59.0215ZM29.7812 57.0254V65.8438H28.5098V55.6035H29.6719L29.7812 57.0254ZM34.7646 59.2402V59.3838C34.7646 59.9215 34.7008 60.4206 34.5732 60.8809C34.4456 61.3366 34.2588 61.7331 34.0127 62.0703C33.7712 62.4076 33.4727 62.6696 33.1172 62.8564C32.7617 63.0433 32.3538 63.1367 31.8936 63.1367C31.4242 63.1367 31.0094 63.0592 30.6494 62.9043C30.2894 62.7493 29.984 62.5238 29.7334 62.2275C29.4827 61.9313 29.2822 61.5758 29.1318 61.1611C28.986 60.7464 28.8857 60.2793 28.8311 59.7598V58.9941C28.8857 58.4473 28.9883 57.9574 29.1387 57.5244C29.2891 57.0915 29.4873 56.7223 29.7334 56.417C29.984 56.1071 30.2871 55.8724 30.6426 55.7129C30.998 55.5488 31.4082 55.4668 31.873 55.4668C32.3379 55.4668 32.7503 55.5579 33.1104 55.7402C33.4704 55.918 33.7734 56.1732 34.0195 56.5059C34.2656 56.8385 34.4502 57.2373 34.5732 57.7021C34.7008 58.1624 34.7646 58.6751 34.7646 59.2402ZM33.4932 59.3838V59.2402C33.4932 58.8711 33.4544 58.5247 33.377 58.2012C33.2995 57.873 33.1787 57.5859 33.0146 57.3398C32.8551 57.0892 32.6501 56.8932 32.3994 56.752C32.1488 56.6061 31.8503 56.5332 31.5039 56.5332C31.1849 56.5332 30.9069 56.5879 30.6699 56.6973C30.4375 56.8066 30.2393 56.9548 30.0752 57.1416C29.9111 57.3239 29.7767 57.5335 29.6719 57.7705C29.5716 58.0029 29.4964 58.2445 29.4463 58.4951V60.2656C29.5374 60.5846 29.665 60.8854 29.8291 61.168C29.9932 61.446 30.2119 61.6715 30.4854 61.8447C30.7588 62.0133 31.1029 62.0977 31.5176 62.0977C31.8594 62.0977 32.1533 62.027 32.3994 61.8857C32.6501 61.7399 32.8551 61.5417 33.0146 61.291C33.1787 61.0404 33.2995 60.7533 33.377 60.4297C33.4544 60.1016 33.4932 59.7529 33.4932 59.3838ZM40.9033 61.291V55.6035H42.1748V63H40.9648L40.9033 61.291ZM41.1426 59.7324L41.6689 59.7188C41.6689 60.2109 41.6165 60.6667 41.5117 61.0859C41.4115 61.5007 41.2474 61.8607 41.0195 62.166C40.7917 62.4714 40.4932 62.7106 40.124 62.8838C39.7549 63.0524 39.306 63.1367 38.7773 63.1367C38.4173 63.1367 38.0869 63.0843 37.7861 62.9795C37.4899 62.8747 37.2347 62.7129 37.0205 62.4941C36.8063 62.2754 36.64 61.9906 36.5215 61.6396C36.4076 61.2887 36.3506 60.8672 36.3506 60.375V55.6035H37.6152V60.3887C37.6152 60.7214 37.6517 60.9971 37.7246 61.2158C37.8021 61.43 37.9046 61.6009 38.0322 61.7285C38.1644 61.8516 38.3102 61.9382 38.4697 61.9883C38.6338 62.0384 38.8024 62.0635 38.9756 62.0635C39.5133 62.0635 39.9395 61.9609 40.2539 61.7559C40.5684 61.5462 40.7939 61.266 40.9307 60.915C41.0719 60.5596 41.1426 60.1654 41.1426 59.7324ZM47.1992 55.6035V56.5742H43.2002V55.6035H47.1992ZM44.5537 53.8057H45.8184V61.168C45.8184 61.4186 45.8571 61.6077 45.9346 61.7354C46.012 61.863 46.1123 61.9473 46.2354 61.9883C46.3584 62.0293 46.4906 62.0498 46.6318 62.0498C46.7367 62.0498 46.846 62.0407 46.96 62.0225C47.0785 61.9997 47.1673 61.9814 47.2266 61.9678L47.2334 63C47.1331 63.0319 47.001 63.0615 46.8369 63.0889C46.6774 63.1208 46.4837 63.1367 46.2559 63.1367C45.946 63.1367 45.6611 63.0752 45.4014 62.9521C45.1416 62.8291 44.9342 62.624 44.7793 62.3369C44.6289 62.0452 44.5537 61.6533 44.5537 61.1611V53.8057ZM55.751 53.0469V63H54.4521V53.0469H55.751ZM58.9502 53.0469V54.127H51.2598V53.0469H58.9502ZM62.6211 63.1367C62.1061 63.1367 61.639 63.0501 61.2197 62.877C60.805 62.6992 60.4473 62.4508 60.1465 62.1318C59.8503 61.8128 59.6224 61.4346 59.4629 60.9971C59.3034 60.5596 59.2236 60.0811 59.2236 59.5615V59.2744C59.2236 58.6729 59.3125 58.1374 59.4902 57.668C59.668 57.194 59.9095 56.793 60.2148 56.4648C60.5202 56.1367 60.8665 55.8883 61.2539 55.7197C61.6413 55.5511 62.0423 55.4668 62.457 55.4668C62.9857 55.4668 63.4414 55.5579 63.8242 55.7402C64.2116 55.9225 64.5283 56.1777 64.7744 56.5059C65.0205 56.8294 65.2028 57.2122 65.3213 57.6543C65.4398 58.0918 65.499 58.5703 65.499 59.0898V59.6572H59.9756V58.625H64.2344V58.5293C64.2161 58.2012 64.1478 57.8822 64.0293 57.5723C63.9154 57.2624 63.7331 57.0072 63.4824 56.8066C63.2318 56.6061 62.89 56.5059 62.457 56.5059C62.1699 56.5059 61.9056 56.5674 61.6641 56.6904C61.4225 56.8089 61.2152 56.9867 61.042 57.2236C60.8688 57.4606 60.7344 57.75 60.6387 58.0918C60.543 58.4336 60.4951 58.8278 60.4951 59.2744V59.5615C60.4951 59.9124 60.543 60.2428 60.6387 60.5527C60.7389 60.8581 60.8825 61.127 61.0693 61.3594C61.2607 61.5918 61.4909 61.7741 61.7598 61.9062C62.0332 62.0384 62.3431 62.1045 62.6895 62.1045C63.1361 62.1045 63.5143 62.0133 63.8242 61.8311C64.1341 61.6488 64.4053 61.4049 64.6377 61.0996L65.4033 61.708C65.2438 61.9495 65.041 62.1797 64.7949 62.3984C64.5488 62.6172 64.2458 62.7949 63.8857 62.9316C63.5303 63.0684 63.1087 63.1367 62.6211 63.1367ZM67.8301 55.6035L69.4502 58.2969L71.0908 55.6035H72.5742L70.1543 59.2539L72.6494 63H71.1865L69.4775 60.2246L67.7686 63H66.2988L68.7871 59.2539L66.374 55.6035H67.8301ZM77.0176 55.6035V56.5742H73.0186V55.6035H77.0176ZM74.3721 53.8057H75.6367V61.168C75.6367 61.4186 75.6755 61.6077 75.7529 61.7354C75.8304 61.863 75.9307 61.9473 76.0537 61.9883C76.1768 62.0293 76.3089 62.0498 76.4502 62.0498C76.555 62.0498 76.6644 62.0407 76.7783 62.0225C76.8968 61.9997 76.9857 61.9814 77.0449 61.9678L77.0518 63C76.9515 63.0319 76.8193 63.0615 76.6553 63.0889C76.4958 63.1208 76.3021 63.1367 76.0742 63.1367C75.7643 63.1367 75.4795 63.0752 75.2197 62.9521C74.96 62.8291 74.7526 62.624 74.5977 62.3369C74.4473 62.0452 74.3721 61.6533 74.3721 61.1611V53.8057Z" fill="#6C6E77"/>
</g>
<defs>
<clipPath id="clip0_335_152">
<rect width="395" height="86" fill="white"/>
</clipPath>
</defs>
</svg>
