<svg width="395" height="56" viewBox="0 0 395 56" fill="none" xmlns="http://www.w3.org/2000/svg">
<g clip-path="url(#clip0_335_159)">
<mask id="path-1-inside-1_335_159" fill="white">
<path d="M0 0H395V56H0V0Z"/>
</mask>
<path d="M395 55H0V57H395V55Z" fill="#C8C8D6" mask="url(#path-1-inside-1_335_159)"/>
<path d="M7.19141 20.9268V22H2.21484V20.9268H7.19141ZM2.47461 12.0469V22H1.15527V12.0469H2.47461ZM12.8721 20.7354V16.9277C12.8721 16.6361 12.8128 16.3831 12.6943 16.1689C12.5804 15.9502 12.4072 15.7816 12.1748 15.6631C11.9424 15.5446 11.6553 15.4854 11.3135 15.4854C10.9945 15.4854 10.7142 15.54 10.4727 15.6494C10.2357 15.7588 10.0488 15.9023 9.91211 16.0801C9.77995 16.2578 9.71387 16.4492 9.71387 16.6543H8.44922C8.44922 16.39 8.51758 16.1279 8.6543 15.8682C8.79102 15.6084 8.98698 15.3737 9.24219 15.1641C9.50195 14.9499 9.81185 14.7812 10.1719 14.6582C10.5365 14.5306 10.9421 14.4668 11.3887 14.4668C11.9264 14.4668 12.4004 14.5579 12.8105 14.7402C13.2253 14.9225 13.5488 15.1982 13.7812 15.5674C14.0182 15.932 14.1367 16.39 14.1367 16.9414V20.3867C14.1367 20.6328 14.1572 20.8949 14.1982 21.1729C14.2438 21.4508 14.3099 21.6901 14.3965 21.8906V22H13.0771C13.0133 21.8542 12.9632 21.6605 12.9268 21.4189C12.8903 21.1729 12.8721 20.945 12.8721 20.7354ZM13.0908 17.5156L13.1045 18.4043H11.8262C11.4661 18.4043 11.1449 18.4339 10.8623 18.4932C10.5798 18.5479 10.3428 18.6322 10.1514 18.7461C9.95996 18.86 9.81413 19.0036 9.71387 19.1768C9.61361 19.3454 9.56348 19.5436 9.56348 19.7715C9.56348 20.0039 9.61589 20.2158 9.7207 20.4072C9.82552 20.5986 9.98275 20.7513 10.1924 20.8652C10.4066 20.9746 10.6686 21.0293 10.9785 21.0293C11.3659 21.0293 11.7077 20.9473 12.0039 20.7832C12.3001 20.6191 12.5348 20.4186 12.708 20.1816C12.8857 19.9447 12.9814 19.7145 12.9951 19.4912L13.5352 20.0996C13.5033 20.291 13.4167 20.5029 13.2754 20.7354C13.1341 20.9678 12.945 21.1911 12.708 21.4053C12.4756 21.6149 12.1976 21.7904 11.874 21.9316C11.555 22.0684 11.195 22.1367 10.7939 22.1367C10.2926 22.1367 9.85286 22.0387 9.47461 21.8428C9.10091 21.6468 8.80924 21.3848 8.59961 21.0566C8.39453 20.724 8.29199 20.3525 8.29199 19.9424C8.29199 19.5459 8.36947 19.1973 8.52441 18.8965C8.67936 18.5911 8.90267 18.3382 9.19434 18.1377C9.486 17.9326 9.83691 17.7777 10.2471 17.6729C10.6572 17.568 11.1152 17.5156 11.6211 17.5156H13.0908ZM16.1191 11.5H17.3906V20.5645L17.2812 22H16.1191V11.5ZM22.3877 18.2402V18.3838C22.3877 18.9215 22.3239 19.4206 22.1963 19.8809C22.0687 20.3366 21.8818 20.7331 21.6357 21.0703C21.3896 21.4076 21.0889 21.6696 20.7334 21.8564C20.3779 22.0433 19.9701 22.1367 19.5098 22.1367C19.0404 22.1367 18.6279 22.057 18.2725 21.8975C17.9215 21.7334 17.6253 21.4987 17.3838 21.1934C17.1423 20.888 16.9486 20.5189 16.8027 20.0859C16.6615 19.653 16.5635 19.1654 16.5088 18.623V17.9941C16.5635 17.4473 16.6615 16.9574 16.8027 16.5244C16.9486 16.0915 17.1423 15.7223 17.3838 15.417C17.6253 15.1071 17.9215 14.8724 18.2725 14.7129C18.6234 14.5488 19.0312 14.4668 19.4961 14.4668C19.9609 14.4668 20.3734 14.5579 20.7334 14.7402C21.0934 14.918 21.3942 15.1732 21.6357 15.5059C21.8818 15.8385 22.0687 16.2373 22.1963 16.7021C22.3239 17.1624 22.3877 17.6751 22.3877 18.2402ZM21.1162 18.3838V18.2402C21.1162 17.8711 21.082 17.5247 21.0137 17.2012C20.9453 16.873 20.8359 16.5859 20.6855 16.3398C20.5352 16.0892 20.3369 15.8932 20.0908 15.752C19.8447 15.6061 19.5417 15.5332 19.1816 15.5332C18.8626 15.5332 18.5846 15.5879 18.3477 15.6973C18.1152 15.8066 17.917 15.9548 17.7529 16.1416C17.5889 16.3239 17.4544 16.5335 17.3496 16.7705C17.2493 17.0029 17.1742 17.2445 17.124 17.4951V19.1426C17.1969 19.4616 17.3154 19.7692 17.4795 20.0654C17.6481 20.3571 17.8714 20.5964 18.1494 20.7832C18.432 20.9701 18.7806 21.0635 19.1953 21.0635C19.5371 21.0635 19.8288 20.9951 20.0703 20.8584C20.3164 20.7171 20.5146 20.5234 20.665 20.2773C20.82 20.0312 20.9339 19.7464 21.0068 19.4229C21.0798 19.0993 21.1162 18.7529 21.1162 18.3838ZM27.0566 22.1367C26.5417 22.1367 26.0745 22.0501 25.6553 21.877C25.2406 21.6992 24.8828 21.4508 24.582 21.1318C24.2858 20.8128 24.0579 20.4346 23.8984 19.9971C23.7389 19.5596 23.6592 19.0811 23.6592 18.5615V18.2744C23.6592 17.6729 23.748 17.1374 23.9258 16.668C24.1035 16.194 24.3451 15.793 24.6504 15.4648C24.9557 15.1367 25.3021 14.8883 25.6895 14.7197C26.0768 14.5511 26.4779 14.4668 26.8926 14.4668C27.4212 14.4668 27.877 14.5579 28.2598 14.7402C28.6471 14.9225 28.9639 15.1777 29.21 15.5059C29.4561 15.8294 29.6383 16.2122 29.7568 16.6543C29.8753 17.0918 29.9346 17.5703 29.9346 18.0898V18.6572H24.4111V17.625H28.6699V17.5293C28.6517 17.2012 28.5833 16.8822 28.4648 16.5723C28.3509 16.2624 28.1686 16.0072 27.918 15.8066C27.6673 15.6061 27.3255 15.5059 26.8926 15.5059C26.6055 15.5059 26.3411 15.5674 26.0996 15.6904C25.8581 15.8089 25.6507 15.9867 25.4775 16.2236C25.3044 16.4606 25.1699 16.75 25.0742 17.0918C24.9785 17.4336 24.9307 17.8278 24.9307 18.2744V18.5615C24.9307 18.9124 24.9785 19.2428 25.0742 19.5527C25.1745 19.8581 25.318 20.127 25.5049 20.3594C25.6963 20.5918 25.9264 20.7741 26.1953 20.9062C26.4688 21.0384 26.7786 21.1045 27.125 21.1045C27.5716 21.1045 27.9499 21.0133 28.2598 20.8311C28.5697 20.6488 28.8408 20.4049 29.0732 20.0996L29.8389 20.708C29.6794 20.9495 29.4766 21.1797 29.2305 21.3984C28.9844 21.6172 28.6813 21.7949 28.3213 21.9316C27.9658 22.0684 27.5443 22.1367 27.0566 22.1367ZM32.7852 11.5V22H31.5137V11.5H32.7852Z" fill="#343A46"/>
<path d="M2.84375 34.0469V44H1.12793V34.0469H2.84375ZM6.44629 38.1826V44H4.79883V36.6035H6.35059L6.44629 38.1826ZM6.15234 40.0283L5.61914 40.0215C5.6237 39.4974 5.69661 39.0166 5.83789 38.5791C5.98372 38.1416 6.18424 37.7656 6.43945 37.4512C6.69922 37.1367 7.00911 36.8952 7.36914 36.7266C7.72917 36.5534 8.13021 36.4668 8.57227 36.4668C8.92773 36.4668 9.24902 36.5169 9.53613 36.6172C9.8278 36.7129 10.0762 36.8701 10.2812 37.0889C10.4909 37.3076 10.6504 37.5924 10.7598 37.9434C10.8691 38.2897 10.9238 38.7158 10.9238 39.2217V44H9.26953V39.2148C9.26953 38.8594 9.21712 38.5791 9.1123 38.374C9.01204 38.1644 8.86393 38.0163 8.66797 37.9297C8.47656 37.8385 8.2373 37.793 7.9502 37.793C7.66764 37.793 7.41471 37.8522 7.19141 37.9707C6.9681 38.0892 6.77897 38.251 6.62402 38.4561C6.47363 38.6611 6.35742 38.8981 6.27539 39.167C6.19336 39.4359 6.15234 39.723 6.15234 40.0283ZM14.2598 38.0254V46.8438H12.6123V36.6035H14.1299L14.2598 38.0254ZM19.0791 40.2334V40.377C19.0791 40.9147 19.0153 41.4137 18.8877 41.874C18.7646 42.3298 18.5801 42.7285 18.334 43.0703C18.0924 43.4076 17.7939 43.6696 17.4385 43.8564C17.083 44.0433 16.6729 44.1367 16.208 44.1367C15.7477 44.1367 15.3444 44.0524 14.998 43.8838C14.6562 43.7106 14.3669 43.4668 14.1299 43.1523C13.8929 42.8379 13.7015 42.4688 13.5557 42.0449C13.4144 41.6165 13.3141 41.1471 13.2549 40.6367V40.083C13.3141 39.5407 13.4144 39.0485 13.5557 38.6064C13.7015 38.1644 13.8929 37.7839 14.1299 37.4648C14.3669 37.1458 14.6562 36.8997 14.998 36.7266C15.3398 36.5534 15.7386 36.4668 16.1943 36.4668C16.6592 36.4668 17.0716 36.5579 17.4316 36.7402C17.7917 36.918 18.0947 37.1732 18.3408 37.5059C18.5869 37.834 18.7715 38.2305 18.8945 38.6953C19.0176 39.1556 19.0791 39.6683 19.0791 40.2334ZM17.4316 40.377V40.2334C17.4316 39.8916 17.3997 39.5749 17.3359 39.2832C17.2721 38.987 17.1719 38.7272 17.0352 38.5039C16.8984 38.2806 16.723 38.1074 16.5088 37.9844C16.2992 37.8568 16.0462 37.793 15.75 37.793C15.4583 37.793 15.2077 37.8431 14.998 37.9434C14.7884 38.0391 14.613 38.1735 14.4717 38.3467C14.3304 38.5199 14.221 38.7227 14.1436 38.9551C14.0661 39.1829 14.0114 39.4313 13.9795 39.7002V41.0264C14.0342 41.3545 14.1276 41.6553 14.2598 41.9287C14.3919 42.2021 14.5788 42.4209 14.8203 42.585C15.0664 42.7445 15.3809 42.8242 15.7637 42.8242C16.0599 42.8242 16.3128 42.7604 16.5225 42.6328C16.7321 42.5052 16.903 42.3298 17.0352 42.1064C17.1719 41.8786 17.2721 41.6165 17.3359 41.3203C17.3997 41.0241 17.4316 40.7096 17.4316 40.377ZM24.9307 42.2568V36.6035H26.585V44H25.0264L24.9307 42.2568ZM25.1631 40.7188L25.7168 40.7051C25.7168 41.2018 25.6621 41.6598 25.5527 42.0791C25.4434 42.4938 25.2747 42.8561 25.0469 43.166C24.819 43.4714 24.5273 43.7106 24.1719 43.8838C23.8164 44.0524 23.3903 44.1367 22.8936 44.1367C22.5335 44.1367 22.2031 44.0843 21.9023 43.9795C21.6016 43.8747 21.3418 43.7129 21.123 43.4941C20.9089 43.2754 20.7425 42.9906 20.624 42.6396C20.5055 42.2887 20.4463 41.8695 20.4463 41.3818V36.6035H22.0938V41.3955C22.0938 41.6644 22.1257 41.89 22.1895 42.0723C22.2533 42.25 22.3398 42.3936 22.4492 42.5029C22.5586 42.6123 22.6862 42.6898 22.832 42.7354C22.9779 42.7809 23.1328 42.8037 23.2969 42.8037C23.7663 42.8037 24.1354 42.7126 24.4043 42.5303C24.6777 42.3434 24.8714 42.0928 24.9854 41.7783C25.1038 41.4639 25.1631 41.1107 25.1631 40.7188ZM31.6641 36.6035V37.8066H27.4941V36.6035H31.6641ZM28.6973 34.792H30.3447V41.9561C30.3447 42.1839 30.3766 42.3594 30.4404 42.4824C30.5088 42.6009 30.6022 42.6807 30.7207 42.7217C30.8392 42.7627 30.9782 42.7832 31.1377 42.7832C31.2516 42.7832 31.361 42.7764 31.4658 42.7627C31.5706 42.749 31.6549 42.7354 31.7188 42.7217L31.7256 43.9795C31.5889 44.0205 31.4294 44.057 31.2471 44.0889C31.0693 44.1208 30.8643 44.1367 30.6318 44.1367C30.2536 44.1367 29.9186 44.0706 29.627 43.9385C29.3353 43.8018 29.1074 43.5807 28.9434 43.2754C28.7793 42.9701 28.6973 42.5645 28.6973 42.0586V34.792ZM40.3525 34.0469V44H38.6504V34.0469H40.3525ZM43.4766 34.0469V35.4141H35.5537V34.0469H43.4766ZM47.2295 44.1367C46.6826 44.1367 46.1882 44.0479 45.7461 43.8701C45.3086 43.6878 44.9349 43.4349 44.625 43.1113C44.3197 42.7878 44.085 42.4072 43.9209 41.9697C43.7568 41.5322 43.6748 41.0605 43.6748 40.5547V40.2812C43.6748 39.7025 43.7591 39.1784 43.9277 38.709C44.0964 38.2396 44.3311 37.8385 44.6318 37.5059C44.9326 37.1686 45.2881 36.9111 45.6982 36.7334C46.1084 36.5557 46.5527 36.4668 47.0312 36.4668C47.5599 36.4668 48.0225 36.5557 48.4189 36.7334C48.8154 36.9111 49.1436 37.1618 49.4033 37.4854C49.6676 37.8044 49.8636 38.1849 49.9912 38.627C50.1234 39.069 50.1895 39.5566 50.1895 40.0898V40.7939H44.4746V39.6113H48.5625V39.4814C48.5534 39.1852 48.4941 38.9072 48.3848 38.6475C48.2799 38.3877 48.1182 38.1781 47.8994 38.0186C47.6807 37.859 47.389 37.7793 47.0244 37.7793C46.751 37.7793 46.5072 37.8385 46.293 37.957C46.0833 38.071 45.9079 38.2373 45.7666 38.4561C45.6253 38.6748 45.516 38.9391 45.4385 39.249C45.3656 39.5544 45.3291 39.8984 45.3291 40.2812V40.5547C45.3291 40.8783 45.3724 41.179 45.459 41.457C45.5501 41.7305 45.6823 41.9697 45.8555 42.1748C46.0286 42.3799 46.2383 42.5417 46.4844 42.6602C46.7305 42.7741 47.0107 42.8311 47.3252 42.8311C47.7217 42.8311 48.0749 42.7513 48.3848 42.5918C48.6947 42.4323 48.9635 42.2067 49.1914 41.915L50.0596 42.7559C49.9001 42.9883 49.6927 43.2116 49.4375 43.4258C49.1823 43.6354 48.8701 43.8063 48.501 43.9385C48.1364 44.0706 47.7126 44.1367 47.2295 44.1367ZM52.7324 36.6035L54.1406 39.0576L55.5762 36.6035H57.3877L55.1455 40.2334L57.4766 44H55.665L54.1611 41.4434L52.6572 44H50.8389L53.1631 40.2334L50.9277 36.6035H52.7324ZM61.9062 36.6035V37.8066H57.7363V36.6035H61.9062ZM58.9395 34.792H60.5869V41.9561C60.5869 42.1839 60.6188 42.3594 60.6826 42.4824C60.751 42.6009 60.8444 42.6807 60.9629 42.7217C61.0814 42.7627 61.2204 42.7832 61.3799 42.7832C61.4938 42.7832 61.6032 42.7764 61.708 42.7627C61.8128 42.749 61.8971 42.7354 61.9609 42.7217L61.9678 43.9795C61.8311 44.0205 61.6715 44.057 61.4893 44.0889C61.3115 44.1208 61.1064 44.1367 60.874 44.1367C60.4958 44.1367 60.1608 44.0706 59.8691 43.9385C59.5775 43.8018 59.3496 43.5807 59.1855 43.2754C59.0215 42.9701 58.9395 42.5645 58.9395 42.0586V34.792Z" fill="#6C6E77"/>
</g>
<defs>
<clipPath id="clip0_335_159">
<rect width="395" height="56" fill="white"/>
</clipPath>
</defs>
</svg>
