<svg width="395" height="67" viewBox="0 0 395 67" fill="#f7fcfc" xmlns="http://www.w3.org/2000/svg">
<g clip-path="url(#clip0_335_153)">
<path d="M13 11H2C0.895431 11 0 11.8954 0 13V65C0 66.1046 0.895432 67 2 67H393C394.105 67 395 66.1046 395 65V13C395 11.8954 394.105 11 393 11H53" stroke="#E9E9F0"/>
<path d="M23.1914 14.9268V16H18.2148V14.9268H23.1914ZM18.4746 6.04688V16H17.1553V6.04688H18.4746ZM28.8721 14.7354V10.9277C28.8721 10.6361 28.8128 10.3831 28.6943 10.1689C28.5804 9.9502 28.4072 9.78158 28.1748 9.66309C27.9424 9.5446 27.6553 9.48535 27.3135 9.48535C26.9945 9.48535 26.7142 9.54004 26.4727 9.64941C26.2357 9.75879 26.0488 9.90234 25.9121 10.0801C25.7799 10.2578 25.7139 10.4492 25.7139 10.6543H24.4492C24.4492 10.39 24.5176 10.1279 24.6543 9.86816C24.791 9.6084 24.987 9.3737 25.2422 9.16406C25.502 8.94987 25.8118 8.78125 26.1719 8.6582C26.5365 8.5306 26.9421 8.4668 27.3887 8.4668C27.9264 8.4668 28.4004 8.55794 28.8105 8.74023C29.2253 8.92253 29.5488 9.19824 29.7812 9.56738C30.0182 9.93197 30.1367 10.39 30.1367 10.9414V14.3867C30.1367 14.6328 30.1572 14.8949 30.1982 15.1729C30.2438 15.4508 30.3099 15.6901 30.3965 15.8906V16H29.0771C29.0133 15.8542 28.9632 15.6605 28.9268 15.4189C28.8903 15.1729 28.8721 14.945 28.8721 14.7354ZM29.0908 11.5156L29.1045 12.4043H27.8262C27.4661 12.4043 27.1449 12.4339 26.8623 12.4932C26.5798 12.5479 26.3428 12.6322 26.1514 12.7461C25.96 12.86 25.8141 13.0036 25.7139 13.1768C25.6136 13.3454 25.5635 13.5436 25.5635 13.7715C25.5635 14.0039 25.6159 14.2158 25.7207 14.4072C25.8255 14.5986 25.9827 14.7513 26.1924 14.8652C26.4066 14.9746 26.6686 15.0293 26.9785 15.0293C27.3659 15.0293 27.7077 14.9473 28.0039 14.7832C28.3001 14.6191 28.5348 14.4186 28.708 14.1816C28.8857 13.9447 28.9814 13.7145 28.9951 13.4912L29.5352 14.0996C29.5033 14.291 29.4167 14.5029 29.2754 14.7354C29.1341 14.9678 28.945 15.1911 28.708 15.4053C28.4756 15.6149 28.1976 15.7904 27.874 15.9316C27.555 16.0684 27.195 16.1367 26.7939 16.1367C26.2926 16.1367 25.8529 16.0387 25.4746 15.8428C25.1009 15.6468 24.8092 15.3848 24.5996 15.0566C24.3945 14.724 24.292 14.3525 24.292 13.9424C24.292 13.5459 24.3695 13.1973 24.5244 12.8965C24.6794 12.5911 24.9027 12.3382 25.1943 12.1377C25.486 11.9326 25.8369 11.7777 26.2471 11.6729C26.6572 11.568 27.1152 11.5156 27.6211 11.5156H29.0908ZM32.1191 5.5H33.3906V14.5645L33.2812 16H32.1191V5.5ZM38.3877 12.2402V12.3838C38.3877 12.9215 38.3239 13.4206 38.1963 13.8809C38.0687 14.3366 37.8818 14.7331 37.6357 15.0703C37.3896 15.4076 37.0889 15.6696 36.7334 15.8564C36.3779 16.0433 35.9701 16.1367 35.5098 16.1367C35.0404 16.1367 34.6279 16.057 34.2725 15.8975C33.9215 15.7334 33.6253 15.4987 33.3838 15.1934C33.1423 14.888 32.9486 14.5189 32.8027 14.0859C32.6615 13.653 32.5635 13.1654 32.5088 12.623V11.9941C32.5635 11.4473 32.6615 10.9574 32.8027 10.5244C32.9486 10.0915 33.1423 9.72233 33.3838 9.41699C33.6253 9.1071 33.9215 8.8724 34.2725 8.71289C34.6234 8.54883 35.0312 8.4668 35.4961 8.4668C35.9609 8.4668 36.3734 8.55794 36.7334 8.74023C37.0934 8.91797 37.3942 9.17318 37.6357 9.50586C37.8818 9.83854 38.0687 10.2373 38.1963 10.7021C38.3239 11.1624 38.3877 11.6751 38.3877 12.2402ZM37.1162 12.3838V12.2402C37.1162 11.8711 37.082 11.5247 37.0137 11.2012C36.9453 10.873 36.8359 10.5859 36.6855 10.3398C36.5352 10.0892 36.3369 9.89323 36.0908 9.75195C35.8447 9.60612 35.5417 9.5332 35.1816 9.5332C34.8626 9.5332 34.5846 9.58789 34.3477 9.69727C34.1152 9.80664 33.917 9.95475 33.7529 10.1416C33.5889 10.3239 33.4544 10.5335 33.3496 10.7705C33.2493 11.0029 33.1742 11.2445 33.124 11.4951V13.1426C33.1969 13.4616 33.3154 13.7692 33.4795 14.0654C33.6481 14.3571 33.8714 14.5964 34.1494 14.7832C34.432 14.9701 34.7806 15.0635 35.1953 15.0635C35.5371 15.0635 35.8288 14.9951 36.0703 14.8584C36.3164 14.7171 36.5146 14.5234 36.665 14.2773C36.82 14.0312 36.9339 13.7464 37.0068 13.4229C37.0798 13.0993 37.1162 12.7529 37.1162 12.3838ZM43.0566 16.1367C42.5417 16.1367 42.0745 16.0501 41.6553 15.877C41.2406 15.6992 40.8828 15.4508 40.582 15.1318C40.2858 14.8128 40.0579 14.4346 39.8984 13.9971C39.7389 13.5596 39.6592 13.0811 39.6592 12.5615V12.2744C39.6592 11.6729 39.748 11.1374 39.9258 10.668C40.1035 10.194 40.3451 9.79297 40.6504 9.46484C40.9557 9.13672 41.3021 8.88835 41.6895 8.71973C42.0768 8.55111 42.4779 8.4668 42.8926 8.4668C43.4212 8.4668 43.877 8.55794 44.2598 8.74023C44.6471 8.92253 44.9639 9.17773 45.21 9.50586C45.4561 9.82943 45.6383 10.2122 45.7568 10.6543C45.8753 11.0918 45.9346 11.5703 45.9346 12.0898V12.6572H40.4111V11.625H44.6699V11.5293C44.6517 11.2012 44.5833 10.8822 44.4648 10.5723C44.3509 10.2624 44.1686 10.0072 43.918 9.80664C43.6673 9.60612 43.3255 9.50586 42.8926 9.50586C42.6055 9.50586 42.3411 9.56738 42.0996 9.69043C41.8581 9.80892 41.6507 9.98665 41.4775 10.2236C41.3044 10.4606 41.1699 10.75 41.0742 11.0918C40.9785 11.4336 40.9307 11.8278 40.9307 12.2744V12.5615C40.9307 12.9124 40.9785 13.2428 41.0742 13.5527C41.1745 13.8581 41.318 14.127 41.5049 14.3594C41.6963 14.5918 41.9264 14.7741 42.1953 14.9062C42.4688 15.0384 42.7786 15.1045 43.125 15.1045C43.5716 15.1045 43.9499 15.0133 44.2598 14.8311C44.5697 14.6488 44.8408 14.4049 45.0732 14.0996L45.8389 14.708C45.6794 14.9495 45.4766 15.1797 45.2305 15.3984C44.9844 15.6172 44.6813 15.7949 44.3213 15.9316C43.9658 16.0684 43.5443 16.1367 43.0566 16.1367ZM48.7852 5.5V16H47.5137V5.5H48.7852Z" fill="#343A46"/>
<path d="M18.5703 34.0469V44H17.251V34.0469H18.5703ZM22.043 38.1826V44H20.7783V36.6035H21.9746L22.043 38.1826ZM21.7422 40.0215L21.2158 40.001C21.2204 39.4951 21.2956 39.028 21.4414 38.5996C21.5872 38.1667 21.7923 37.7907 22.0566 37.4717C22.321 37.1527 22.6354 36.9066 23 36.7334C23.3691 36.5557 23.777 36.4668 24.2236 36.4668C24.5882 36.4668 24.9163 36.5169 25.208 36.6172C25.4997 36.7129 25.748 36.8678 25.9531 37.082C26.1628 37.2962 26.3223 37.5742 26.4316 37.916C26.541 38.2533 26.5957 38.6657 26.5957 39.1533V44H25.3242V39.1396C25.3242 38.7523 25.2673 38.4424 25.1533 38.21C25.0394 37.973 24.873 37.8021 24.6543 37.6973C24.4355 37.5879 24.1667 37.5332 23.8477 37.5332C23.5332 37.5332 23.2461 37.5993 22.9863 37.7314C22.7311 37.8636 22.5101 38.0459 22.3232 38.2783C22.141 38.5107 21.9974 38.7773 21.8926 39.0781C21.7923 39.3743 21.7422 39.6888 21.7422 40.0215ZM29.7812 38.0254V46.8438H28.5098V36.6035H29.6719L29.7812 38.0254ZM34.7646 40.2402V40.3838C34.7646 40.9215 34.7008 41.4206 34.5732 41.8809C34.4456 42.3366 34.2588 42.7331 34.0127 43.0703C33.7712 43.4076 33.4727 43.6696 33.1172 43.8564C32.7617 44.0433 32.3538 44.1367 31.8936 44.1367C31.4242 44.1367 31.0094 44.0592 30.6494 43.9043C30.2894 43.7493 29.984 43.5238 29.7334 43.2275C29.4827 42.9313 29.2822 42.5758 29.1318 42.1611C28.986 41.7464 28.8857 41.2793 28.8311 40.7598V39.9941C28.8857 39.4473 28.9883 38.9574 29.1387 38.5244C29.2891 38.0915 29.4873 37.7223 29.7334 37.417C29.984 37.1071 30.2871 36.8724 30.6426 36.7129C30.998 36.5488 31.4082 36.4668 31.873 36.4668C32.3379 36.4668 32.7503 36.5579 33.1104 36.7402C33.4704 36.918 33.7734 37.1732 34.0195 37.5059C34.2656 37.8385 34.4502 38.2373 34.5732 38.7021C34.7008 39.1624 34.7646 39.6751 34.7646 40.2402ZM33.4932 40.3838V40.2402C33.4932 39.8711 33.4544 39.5247 33.377 39.2012C33.2995 38.873 33.1787 38.5859 33.0146 38.3398C32.8551 38.0892 32.6501 37.8932 32.3994 37.752C32.1488 37.6061 31.8503 37.5332 31.5039 37.5332C31.1849 37.5332 30.9069 37.5879 30.6699 37.6973C30.4375 37.8066 30.2393 37.9548 30.0752 38.1416C29.9111 38.3239 29.7767 38.5335 29.6719 38.7705C29.5716 39.0029 29.4964 39.2445 29.4463 39.4951V41.2656C29.5374 41.5846 29.665 41.8854 29.8291 42.168C29.9932 42.446 30.2119 42.6715 30.4854 42.8447C30.7588 43.0133 31.1029 43.0977 31.5176 43.0977C31.8594 43.0977 32.1533 43.027 32.3994 42.8857C32.6501 42.7399 32.8551 42.5417 33.0146 42.291C33.1787 42.0404 33.2995 41.7533 33.377 41.4297C33.4544 41.1016 33.4932 40.7529 33.4932 40.3838ZM40.9033 42.291V36.6035H42.1748V44H40.9648L40.9033 42.291ZM41.1426 40.7324L41.6689 40.7188C41.6689 41.2109 41.6165 41.6667 41.5117 42.0859C41.4115 42.5007 41.2474 42.8607 41.0195 43.166C40.7917 43.4714 40.4932 43.7106 40.124 43.8838C39.7549 44.0524 39.306 44.1367 38.7773 44.1367C38.4173 44.1367 38.0869 44.0843 37.7861 43.9795C37.4899 43.8747 37.2347 43.7129 37.0205 43.4941C36.8063 43.2754 36.64 42.9906 36.5215 42.6396C36.4076 42.2887 36.3506 41.8672 36.3506 41.375V36.6035H37.6152V41.3887C37.6152 41.7214 37.6517 41.9971 37.7246 42.2158C37.8021 42.43 37.9046 42.6009 38.0322 42.7285C38.1644 42.8516 38.3102 42.9382 38.4697 42.9883C38.6338 43.0384 38.8024 43.0635 38.9756 43.0635C39.5133 43.0635 39.9395 42.9609 40.2539 42.7559C40.5684 42.5462 40.7939 42.266 40.9307 41.915C41.0719 41.5596 41.1426 41.1654 41.1426 40.7324ZM47.1992 36.6035V37.5742H43.2002V36.6035H47.1992ZM44.5537 34.8057H45.8184V42.168C45.8184 42.4186 45.8571 42.6077 45.9346 42.7354C46.012 42.863 46.1123 42.9473 46.2354 42.9883C46.3584 43.0293 46.4906 43.0498 46.6318 43.0498C46.7367 43.0498 46.846 43.0407 46.96 43.0225C47.0785 42.9997 47.1673 42.9814 47.2266 42.9678L47.2334 44C47.1331 44.0319 47.001 44.0615 46.8369 44.0889C46.6774 44.1208 46.4837 44.1367 46.2559 44.1367C45.946 44.1367 45.6611 44.0752 45.4014 43.9521C45.1416 43.8291 44.9342 43.624 44.7793 43.3369C44.6289 43.0452 44.5537 42.6533 44.5537 42.1611V34.8057ZM55.751 34.0469V44H54.4521V34.0469H55.751ZM58.9502 34.0469V35.127H51.2598V34.0469H58.9502ZM62.6211 44.1367C62.1061 44.1367 61.639 44.0501 61.2197 43.877C60.805 43.6992 60.4473 43.4508 60.1465 43.1318C59.8503 42.8128 59.6224 42.4346 59.4629 41.9971C59.3034 41.5596 59.2236 41.0811 59.2236 40.5615V40.2744C59.2236 39.6729 59.3125 39.1374 59.4902 38.668C59.668 38.194 59.9095 37.793 60.2148 37.4648C60.5202 37.1367 60.8665 36.8883 61.2539 36.7197C61.6413 36.5511 62.0423 36.4668 62.457 36.4668C62.9857 36.4668 63.4414 36.5579 63.8242 36.7402C64.2116 36.9225 64.5283 37.1777 64.7744 37.5059C65.0205 37.8294 65.2028 38.2122 65.3213 38.6543C65.4398 39.0918 65.499 39.5703 65.499 40.0898V40.6572H59.9756V39.625H64.2344V39.5293C64.2161 39.2012 64.1478 38.8822 64.0293 38.5723C63.9154 38.2624 63.7331 38.0072 63.4824 37.8066C63.2318 37.6061 62.89 37.5059 62.457 37.5059C62.1699 37.5059 61.9056 37.5674 61.6641 37.6904C61.4225 37.8089 61.2152 37.9867 61.042 38.2236C60.8688 38.4606 60.7344 38.75 60.6387 39.0918C60.543 39.4336 60.4951 39.8278 60.4951 40.2744V40.5615C60.4951 40.9124 60.543 41.2428 60.6387 41.5527C60.7389 41.8581 60.8825 42.127 61.0693 42.3594C61.2607 42.5918 61.4909 42.7741 61.7598 42.9062C62.0332 43.0384 62.3431 43.1045 62.6895 43.1045C63.1361 43.1045 63.5143 43.0133 63.8242 42.8311C64.1341 42.6488 64.4053 42.4049 64.6377 42.0996L65.4033 42.708C65.2438 42.9495 65.041 43.1797 64.7949 43.3984C64.5488 43.6172 64.2458 43.7949 63.8857 43.9316C63.5303 44.0684 63.1087 44.1367 62.6211 44.1367ZM67.8301 36.6035L69.4502 39.2969L71.0908 36.6035H72.5742L70.1543 40.2539L72.6494 44H71.1865L69.4775 41.2246L67.7686 44H66.2988L68.7871 40.2539L66.374 36.6035H67.8301ZM77.0176 36.6035V37.5742H73.0186V36.6035H77.0176ZM74.3721 34.8057H75.6367V42.168C75.6367 42.4186 75.6755 42.6077 75.7529 42.7354C75.8304 42.863 75.9307 42.9473 76.0537 42.9883C76.1768 43.0293 76.3089 43.0498 76.4502 43.0498C76.555 43.0498 76.6644 43.0407 76.7783 43.0225C76.8968 42.9997 76.9857 42.9814 77.0449 42.9678L77.0518 44C76.9515 44.0319 76.8193 44.0615 76.6553 44.0889C76.4958 44.1208 76.3021 44.1367 76.0742 44.1367C75.7643 44.1367 75.4795 44.0752 75.2197 43.9521C74.96 43.8291 74.7526 43.624 74.5977 43.3369C74.4473 43.0452 74.3721 42.6533 74.3721 42.1611V34.8057Z" fill="#6C6E77"/>
</g>
<defs>
<clipPath id="clip0_335_153">
<rect width="395" height="67" fill="white"/>
</clipPath>
</defs>
</svg>
