<svg width="395" height="56" viewBox="0 0 395 56" fill="none" xmlns="http://www.w3.org/2000/svg">
<g clip-path="url(#clip0_335_158)">
<path d="M2 0.5H393C393.828 0.5 394.5 1.17157 394.5 2V54C394.5 54.8284 393.828 55.5 393 55.5H2C1.17157 55.5 0.5 54.8284 0.5 54V2C0.5 1.17157 1.17157 0.5 2 0.5Z" stroke="#E9E9F0"/>
<path d="M23.1914 31.9268V33H18.2148V31.9268H23.1914ZM18.4746 23.0469V33H17.1553V23.0469H18.4746ZM28.8721 31.7354V27.9277C28.8721 27.6361 28.8128 27.3831 28.6943 27.1689C28.5804 26.9502 28.4072 26.7816 28.1748 26.6631C27.9424 26.5446 27.6553 26.4854 27.3135 26.4854C26.9945 26.4854 26.7142 26.54 26.4727 26.6494C26.2357 26.7588 26.0488 26.9023 25.9121 27.0801C25.7799 27.2578 25.7139 27.4492 25.7139 27.6543H24.4492C24.4492 27.39 24.5176 27.1279 24.6543 26.8682C24.791 26.6084 24.987 26.3737 25.2422 26.1641C25.502 25.9499 25.8118 25.7812 26.1719 25.6582C26.5365 25.5306 26.9421 25.4668 27.3887 25.4668C27.9264 25.4668 28.4004 25.5579 28.8105 25.7402C29.2253 25.9225 29.5488 26.1982 29.7812 26.5674C30.0182 26.932 30.1367 27.39 30.1367 27.9414V31.3867C30.1367 31.6328 30.1572 31.8949 30.1982 32.1729C30.2438 32.4508 30.3099 32.6901 30.3965 32.8906V33H29.0771C29.0133 32.8542 28.9632 32.6605 28.9268 32.4189C28.8903 32.1729 28.8721 31.945 28.8721 31.7354ZM29.0908 28.5156L29.1045 29.4043H27.8262C27.4661 29.4043 27.1449 29.4339 26.8623 29.4932C26.5798 29.5479 26.3428 29.6322 26.1514 29.7461C25.96 29.86 25.8141 30.0036 25.7139 30.1768C25.6136 30.3454 25.5635 30.5436 25.5635 30.7715C25.5635 31.0039 25.6159 31.2158 25.7207 31.4072C25.8255 31.5986 25.9827 31.7513 26.1924 31.8652C26.4066 31.9746 26.6686 32.0293 26.9785 32.0293C27.3659 32.0293 27.7077 31.9473 28.0039 31.7832C28.3001 31.6191 28.5348 31.4186 28.708 31.1816C28.8857 30.9447 28.9814 30.7145 28.9951 30.4912L29.5352 31.0996C29.5033 31.291 29.4167 31.5029 29.2754 31.7354C29.1341 31.9678 28.945 32.1911 28.708 32.4053C28.4756 32.6149 28.1976 32.7904 27.874 32.9316C27.555 33.0684 27.195 33.1367 26.7939 33.1367C26.2926 33.1367 25.8529 33.0387 25.4746 32.8428C25.1009 32.6468 24.8092 32.3848 24.5996 32.0566C24.3945 31.724 24.292 31.3525 24.292 30.9424C24.292 30.5459 24.3695 30.1973 24.5244 29.8965C24.6794 29.5911 24.9027 29.3382 25.1943 29.1377C25.486 28.9326 25.8369 28.7777 26.2471 28.6729C26.6572 28.568 27.1152 28.5156 27.6211 28.5156H29.0908ZM32.1191 22.5H33.3906V31.5645L33.2812 33H32.1191V22.5ZM38.3877 29.2402V29.3838C38.3877 29.9215 38.3239 30.4206 38.1963 30.8809C38.0687 31.3366 37.8818 31.7331 37.6357 32.0703C37.3896 32.4076 37.0889 32.6696 36.7334 32.8564C36.3779 33.0433 35.9701 33.1367 35.5098 33.1367C35.0404 33.1367 34.6279 33.057 34.2725 32.8975C33.9215 32.7334 33.6253 32.4987 33.3838 32.1934C33.1423 31.888 32.9486 31.5189 32.8027 31.0859C32.6615 30.653 32.5635 30.1654 32.5088 29.623V28.9941C32.5635 28.4473 32.6615 27.9574 32.8027 27.5244C32.9486 27.0915 33.1423 26.7223 33.3838 26.417C33.6253 26.1071 33.9215 25.8724 34.2725 25.7129C34.6234 25.5488 35.0312 25.4668 35.4961 25.4668C35.9609 25.4668 36.3734 25.5579 36.7334 25.7402C37.0934 25.918 37.3942 26.1732 37.6357 26.5059C37.8818 26.8385 38.0687 27.2373 38.1963 27.7021C38.3239 28.1624 38.3877 28.6751 38.3877 29.2402ZM37.1162 29.3838V29.2402C37.1162 28.8711 37.082 28.5247 37.0137 28.2012C36.9453 27.873 36.8359 27.5859 36.6855 27.3398C36.5352 27.0892 36.3369 26.8932 36.0908 26.752C35.8447 26.6061 35.5417 26.5332 35.1816 26.5332C34.8626 26.5332 34.5846 26.5879 34.3477 26.6973C34.1152 26.8066 33.917 26.9548 33.7529 27.1416C33.5889 27.3239 33.4544 27.5335 33.3496 27.7705C33.2493 28.0029 33.1742 28.2445 33.124 28.4951V30.1426C33.1969 30.4616 33.3154 30.7692 33.4795 31.0654C33.6481 31.3571 33.8714 31.5964 34.1494 31.7832C34.432 31.9701 34.7806 32.0635 35.1953 32.0635C35.5371 32.0635 35.8288 31.9951 36.0703 31.8584C36.3164 31.7171 36.5146 31.5234 36.665 31.2773C36.82 31.0312 36.9339 30.7464 37.0068 30.4229C37.0798 30.0993 37.1162 29.7529 37.1162 29.3838ZM43.0566 33.1367C42.5417 33.1367 42.0745 33.0501 41.6553 32.877C41.2406 32.6992 40.8828 32.4508 40.582 32.1318C40.2858 31.8128 40.0579 31.4346 39.8984 30.9971C39.7389 30.5596 39.6592 30.0811 39.6592 29.5615V29.2744C39.6592 28.6729 39.748 28.1374 39.9258 27.668C40.1035 27.194 40.3451 26.793 40.6504 26.4648C40.9557 26.1367 41.3021 25.8883 41.6895 25.7197C42.0768 25.5511 42.4779 25.4668 42.8926 25.4668C43.4212 25.4668 43.877 25.5579 44.2598 25.7402C44.6471 25.9225 44.9639 26.1777 45.21 26.5059C45.4561 26.8294 45.6383 27.2122 45.7568 27.6543C45.8753 28.0918 45.9346 28.5703 45.9346 29.0898V29.6572H40.4111V28.625H44.6699V28.5293C44.6517 28.2012 44.5833 27.8822 44.4648 27.5723C44.3509 27.2624 44.1686 27.0072 43.918 26.8066C43.6673 26.6061 43.3255 26.5059 42.8926 26.5059C42.6055 26.5059 42.3411 26.5674 42.0996 26.6904C41.8581 26.8089 41.6507 26.9867 41.4775 27.2236C41.3044 27.4606 41.1699 27.75 41.0742 28.0918C40.9785 28.4336 40.9307 28.8278 40.9307 29.2744V29.5615C40.9307 29.9124 40.9785 30.2428 41.0742 30.5527C41.1745 30.8581 41.318 31.127 41.5049 31.3594C41.6963 31.5918 41.9264 31.7741 42.1953 31.9062C42.4688 32.0384 42.7786 32.1045 43.125 32.1045C43.5716 32.1045 43.9499 32.0133 44.2598 31.8311C44.5697 31.6488 44.8408 31.4049 45.0732 31.0996L45.8389 31.708C45.6794 31.9495 45.4766 32.1797 45.2305 32.3984C44.9844 32.6172 44.6813 32.7949 44.3213 32.9316C43.9658 33.0684 43.5443 33.1367 43.0566 33.1367ZM48.7852 22.5V33H47.5137V22.5H48.7852Z" fill="#6C6E77"/>
</g>
<defs>
<clipPath id="clip0_335_158">
<rect width="395" height="56" fill="white"/>
</clipPath>
</defs>
</svg>
