<svg width="395" height="56" viewBox="0 0 395 56" fill="none" xmlns="http://www.w3.org/2000/svg">
<g clip-path="url(#clip0_335_156)">
<path d="M2 0.5H393C393.828 0.5 394.5 1.17157 394.5 2V54C394.5 54.8284 393.828 55.5 393 55.5H2C1.17157 55.5 0.5 54.8284 0.5 54V2C0.5 1.17157 1.17157 0.5 2 0.5Z" fill="#E9E9F0" fill-opacity="0.24" stroke="#E9E9F0"/>
<path d="M23.1914 20.9268V22H18.2148V20.9268H23.1914ZM18.4746 12.0469V22H17.1553V12.0469H18.4746ZM28.8721 20.7354V16.9277C28.8721 16.6361 28.8128 16.3831 28.6943 16.1689C28.5804 15.9502 28.4072 15.7816 28.1748 15.6631C27.9424 15.5446 27.6553 15.4854 27.3135 15.4854C26.9945 15.4854 26.7142 15.54 26.4727 15.6494C26.2357 15.7588 26.0488 15.9023 25.9121 16.0801C25.7799 16.2578 25.7139 16.4492 25.7139 16.6543H24.4492C24.4492 16.39 24.5176 16.1279 24.6543 15.8682C24.791 15.6084 24.987 15.3737 25.2422 15.1641C25.502 14.9499 25.8118 14.7812 26.1719 14.6582C26.5365 14.5306 26.9421 14.4668 27.3887 14.4668C27.9264 14.4668 28.4004 14.5579 28.8105 14.7402C29.2253 14.9225 29.5488 15.1982 29.7812 15.5674C30.0182 15.932 30.1367 16.39 30.1367 16.9414V20.3867C30.1367 20.6328 30.1572 20.8949 30.1982 21.1729C30.2438 21.4508 30.3099 21.6901 30.3965 21.8906V22H29.0771C29.0133 21.8542 28.9632 21.6605 28.9268 21.4189C28.8903 21.1729 28.8721 20.945 28.8721 20.7354ZM29.0908 17.5156L29.1045 18.4043H27.8262C27.4661 18.4043 27.1449 18.4339 26.8623 18.4932C26.5798 18.5479 26.3428 18.6322 26.1514 18.7461C25.96 18.86 25.8141 19.0036 25.7139 19.1768C25.6136 19.3454 25.5635 19.5436 25.5635 19.7715C25.5635 20.0039 25.6159 20.2158 25.7207 20.4072C25.8255 20.5986 25.9827 20.7513 26.1924 20.8652C26.4066 20.9746 26.6686 21.0293 26.9785 21.0293C27.3659 21.0293 27.7077 20.9473 28.0039 20.7832C28.3001 20.6191 28.5348 20.4186 28.708 20.1816C28.8857 19.9447 28.9814 19.7145 28.9951 19.4912L29.5352 20.0996C29.5033 20.291 29.4167 20.5029 29.2754 20.7354C29.1341 20.9678 28.945 21.1911 28.708 21.4053C28.4756 21.6149 28.1976 21.7904 27.874 21.9316C27.555 22.0684 27.195 22.1367 26.7939 22.1367C26.2926 22.1367 25.8529 22.0387 25.4746 21.8428C25.1009 21.6468 24.8092 21.3848 24.5996 21.0566C24.3945 20.724 24.292 20.3525 24.292 19.9424C24.292 19.5459 24.3695 19.1973 24.5244 18.8965C24.6794 18.5911 24.9027 18.3382 25.1943 18.1377C25.486 17.9326 25.8369 17.7777 26.2471 17.6729C26.6572 17.568 27.1152 17.5156 27.6211 17.5156H29.0908ZM32.1191 11.5H33.3906V20.5645L33.2812 22H32.1191V11.5ZM38.3877 18.2402V18.3838C38.3877 18.9215 38.3239 19.4206 38.1963 19.8809C38.0687 20.3366 37.8818 20.7331 37.6357 21.0703C37.3896 21.4076 37.0889 21.6696 36.7334 21.8564C36.3779 22.0433 35.9701 22.1367 35.5098 22.1367C35.0404 22.1367 34.6279 22.057 34.2725 21.8975C33.9215 21.7334 33.6253 21.4987 33.3838 21.1934C33.1423 20.888 32.9486 20.5189 32.8027 20.0859C32.6615 19.653 32.5635 19.1654 32.5088 18.623V17.9941C32.5635 17.4473 32.6615 16.9574 32.8027 16.5244C32.9486 16.0915 33.1423 15.7223 33.3838 15.417C33.6253 15.1071 33.9215 14.8724 34.2725 14.7129C34.6234 14.5488 35.0312 14.4668 35.4961 14.4668C35.9609 14.4668 36.3734 14.5579 36.7334 14.7402C37.0934 14.918 37.3942 15.1732 37.6357 15.5059C37.8818 15.8385 38.0687 16.2373 38.1963 16.7021C38.3239 17.1624 38.3877 17.6751 38.3877 18.2402ZM37.1162 18.3838V18.2402C37.1162 17.8711 37.082 17.5247 37.0137 17.2012C36.9453 16.873 36.8359 16.5859 36.6855 16.3398C36.5352 16.0892 36.3369 15.8932 36.0908 15.752C35.8447 15.6061 35.5417 15.5332 35.1816 15.5332C34.8626 15.5332 34.5846 15.5879 34.3477 15.6973C34.1152 15.8066 33.917 15.9548 33.7529 16.1416C33.5889 16.3239 33.4544 16.5335 33.3496 16.7705C33.2493 17.0029 33.1742 17.2445 33.124 17.4951V19.1426C33.1969 19.4616 33.3154 19.7692 33.4795 20.0654C33.6481 20.3571 33.8714 20.5964 34.1494 20.7832C34.432 20.9701 34.7806 21.0635 35.1953 21.0635C35.5371 21.0635 35.8288 20.9951 36.0703 20.8584C36.3164 20.7171 36.5146 20.5234 36.665 20.2773C36.82 20.0312 36.9339 19.7464 37.0068 19.4229C37.0798 19.0993 37.1162 18.7529 37.1162 18.3838ZM43.0566 22.1367C42.5417 22.1367 42.0745 22.0501 41.6553 21.877C41.2406 21.6992 40.8828 21.4508 40.582 21.1318C40.2858 20.8128 40.0579 20.4346 39.8984 19.9971C39.7389 19.5596 39.6592 19.0811 39.6592 18.5615V18.2744C39.6592 17.6729 39.748 17.1374 39.9258 16.668C40.1035 16.194 40.3451 15.793 40.6504 15.4648C40.9557 15.1367 41.3021 14.8883 41.6895 14.7197C42.0768 14.5511 42.4779 14.4668 42.8926 14.4668C43.4212 14.4668 43.877 14.5579 44.2598 14.7402C44.6471 14.9225 44.9639 15.1777 45.21 15.5059C45.4561 15.8294 45.6383 16.2122 45.7568 16.6543C45.8753 17.0918 45.9346 17.5703 45.9346 18.0898V18.6572H40.4111V17.625H44.6699V17.5293C44.6517 17.2012 44.5833 16.8822 44.4648 16.5723C44.3509 16.2624 44.1686 16.0072 43.918 15.8066C43.6673 15.6061 43.3255 15.5059 42.8926 15.5059C42.6055 15.5059 42.3411 15.5674 42.0996 15.6904C41.8581 15.8089 41.6507 15.9867 41.4775 16.2236C41.3044 16.4606 41.1699 16.75 41.0742 17.0918C40.9785 17.4336 40.9307 17.8278 40.9307 18.2744V18.5615C40.9307 18.9124 40.9785 19.2428 41.0742 19.5527C41.1745 19.8581 41.318 20.127 41.5049 20.3594C41.6963 20.5918 41.9264 20.7741 42.1953 20.9062C42.4688 21.0384 42.7786 21.1045 43.125 21.1045C43.5716 21.1045 43.9499 21.0133 44.2598 20.8311C44.5697 20.6488 44.8408 20.4049 45.0732 20.0996L45.8389 20.708C45.6794 20.9495 45.4766 21.1797 45.2305 21.3984C44.9844 21.6172 44.6813 21.7949 44.3213 21.9316C43.9658 22.0684 43.5443 22.1367 43.0566 22.1367ZM48.7852 11.5V22H47.5137V11.5H48.7852Z" fill="#343A46"/>
<path d="M18.5703 34.0469V44H17.251V34.0469H18.5703ZM22.043 38.1826V44H20.7783V36.6035H21.9746L22.043 38.1826ZM21.7422 40.0215L21.2158 40.001C21.2204 39.4951 21.2956 39.028 21.4414 38.5996C21.5872 38.1667 21.7923 37.7907 22.0566 37.4717C22.321 37.1527 22.6354 36.9066 23 36.7334C23.3691 36.5557 23.777 36.4668 24.2236 36.4668C24.5882 36.4668 24.9163 36.5169 25.208 36.6172C25.4997 36.7129 25.748 36.8678 25.9531 37.082C26.1628 37.2962 26.3223 37.5742 26.4316 37.916C26.541 38.2533 26.5957 38.6657 26.5957 39.1533V44H25.3242V39.1396C25.3242 38.7523 25.2673 38.4424 25.1533 38.21C25.0394 37.973 24.873 37.8021 24.6543 37.6973C24.4355 37.5879 24.1667 37.5332 23.8477 37.5332C23.5332 37.5332 23.2461 37.5993 22.9863 37.7314C22.7311 37.8636 22.5101 38.0459 22.3232 38.2783C22.141 38.5107 21.9974 38.7773 21.8926 39.0781C21.7923 39.3743 21.7422 39.6888 21.7422 40.0215ZM29.7812 38.0254V46.8438H28.5098V36.6035H29.6719L29.7812 38.0254ZM34.7646 40.2402V40.3838C34.7646 40.9215 34.7008 41.4206 34.5732 41.8809C34.4456 42.3366 34.2588 42.7331 34.0127 43.0703C33.7712 43.4076 33.4727 43.6696 33.1172 43.8564C32.7617 44.0433 32.3538 44.1367 31.8936 44.1367C31.4242 44.1367 31.0094 44.0592 30.6494 43.9043C30.2894 43.7493 29.984 43.5238 29.7334 43.2275C29.4827 42.9313 29.2822 42.5758 29.1318 42.1611C28.986 41.7464 28.8857 41.2793 28.8311 40.7598V39.9941C28.8857 39.4473 28.9883 38.9574 29.1387 38.5244C29.2891 38.0915 29.4873 37.7223 29.7334 37.417C29.984 37.1071 30.2871 36.8724 30.6426 36.7129C30.998 36.5488 31.4082 36.4668 31.873 36.4668C32.3379 36.4668 32.7503 36.5579 33.1104 36.7402C33.4704 36.918 33.7734 37.1732 34.0195 37.5059C34.2656 37.8385 34.4502 38.2373 34.5732 38.7021C34.7008 39.1624 34.7646 39.6751 34.7646 40.2402ZM33.4932 40.3838V40.2402C33.4932 39.8711 33.4544 39.5247 33.377 39.2012C33.2995 38.873 33.1787 38.5859 33.0146 38.3398C32.8551 38.0892 32.6501 37.8932 32.3994 37.752C32.1488 37.6061 31.8503 37.5332 31.5039 37.5332C31.1849 37.5332 30.9069 37.5879 30.6699 37.6973C30.4375 37.8066 30.2393 37.9548 30.0752 38.1416C29.9111 38.3239 29.7767 38.5335 29.6719 38.7705C29.5716 39.0029 29.4964 39.2445 29.4463 39.4951V41.2656C29.5374 41.5846 29.665 41.8854 29.8291 42.168C29.9932 42.446 30.2119 42.6715 30.4854 42.8447C30.7588 43.0133 31.1029 43.0977 31.5176 43.0977C31.8594 43.0977 32.1533 43.027 32.3994 42.8857C32.6501 42.7399 32.8551 42.5417 33.0146 42.291C33.1787 42.0404 33.2995 41.7533 33.377 41.4297C33.4544 41.1016 33.4932 40.7529 33.4932 40.3838ZM40.9033 42.291V36.6035H42.1748V44H40.9648L40.9033 42.291ZM41.1426 40.7324L41.6689 40.7188C41.6689 41.2109 41.6165 41.6667 41.5117 42.0859C41.4115 42.5007 41.2474 42.8607 41.0195 43.166C40.7917 43.4714 40.4932 43.7106 40.124 43.8838C39.7549 44.0524 39.306 44.1367 38.7773 44.1367C38.4173 44.1367 38.0869 44.0843 37.7861 43.9795C37.4899 43.8747 37.2347 43.7129 37.0205 43.4941C36.8063 43.2754 36.64 42.9906 36.5215 42.6396C36.4076 42.2887 36.3506 41.8672 36.3506 41.375V36.6035H37.6152V41.3887C37.6152 41.7214 37.6517 41.9971 37.7246 42.2158C37.8021 42.43 37.9046 42.6009 38.0322 42.7285C38.1644 42.8516 38.3102 42.9382 38.4697 42.9883C38.6338 43.0384 38.8024 43.0635 38.9756 43.0635C39.5133 43.0635 39.9395 42.9609 40.2539 42.7559C40.5684 42.5462 40.7939 42.266 40.9307 41.915C41.0719 41.5596 41.1426 41.1654 41.1426 40.7324ZM47.1992 36.6035V37.5742H43.2002V36.6035H47.1992ZM44.5537 34.8057H45.8184V42.168C45.8184 42.4186 45.8571 42.6077 45.9346 42.7354C46.012 42.863 46.1123 42.9473 46.2354 42.9883C46.3584 43.0293 46.4906 43.0498 46.6318 43.0498C46.7367 43.0498 46.846 43.0407 46.96 43.0225C47.0785 42.9997 47.1673 42.9814 47.2266 42.9678L47.2334 44C47.1331 44.0319 47.001 44.0615 46.8369 44.0889C46.6774 44.1208 46.4837 44.1367 46.2559 44.1367C45.946 44.1367 45.6611 44.0752 45.4014 43.9521C45.1416 43.8291 44.9342 43.624 44.7793 43.3369C44.6289 43.0452 44.5537 42.6533 44.5537 42.1611V34.8057ZM55.751 34.0469V44H54.4521V34.0469H55.751ZM58.9502 34.0469V35.127H51.2598V34.0469H58.9502ZM62.6211 44.1367C62.1061 44.1367 61.639 44.0501 61.2197 43.877C60.805 43.6992 60.4473 43.4508 60.1465 43.1318C59.8503 42.8128 59.6224 42.4346 59.4629 41.9971C59.3034 41.5596 59.2236 41.0811 59.2236 40.5615V40.2744C59.2236 39.6729 59.3125 39.1374 59.4902 38.668C59.668 38.194 59.9095 37.793 60.2148 37.4648C60.5202 37.1367 60.8665 36.8883 61.2539 36.7197C61.6413 36.5511 62.0423 36.4668 62.457 36.4668C62.9857 36.4668 63.4414 36.5579 63.8242 36.7402C64.2116 36.9225 64.5283 37.1777 64.7744 37.5059C65.0205 37.8294 65.2028 38.2122 65.3213 38.6543C65.4398 39.0918 65.499 39.5703 65.499 40.0898V40.6572H59.9756V39.625H64.2344V39.5293C64.2161 39.2012 64.1478 38.8822 64.0293 38.5723C63.9154 38.2624 63.7331 38.0072 63.4824 37.8066C63.2318 37.6061 62.89 37.5059 62.457 37.5059C62.1699 37.5059 61.9056 37.5674 61.6641 37.6904C61.4225 37.8089 61.2152 37.9867 61.042 38.2236C60.8688 38.4606 60.7344 38.75 60.6387 39.0918C60.543 39.4336 60.4951 39.8278 60.4951 40.2744V40.5615C60.4951 40.9124 60.543 41.2428 60.6387 41.5527C60.7389 41.8581 60.8825 42.127 61.0693 42.3594C61.2607 42.5918 61.4909 42.7741 61.7598 42.9062C62.0332 43.0384 62.3431 43.1045 62.6895 43.1045C63.1361 43.1045 63.5143 43.0133 63.8242 42.8311C64.1341 42.6488 64.4053 42.4049 64.6377 42.0996L65.4033 42.708C65.2438 42.9495 65.041 43.1797 64.7949 43.3984C64.5488 43.6172 64.2458 43.7949 63.8857 43.9316C63.5303 44.0684 63.1087 44.1367 62.6211 44.1367ZM67.8301 36.6035L69.4502 39.2969L71.0908 36.6035H72.5742L70.1543 40.2539L72.6494 44H71.1865L69.4775 41.2246L67.7686 44H66.2988L68.7871 40.2539L66.374 36.6035H67.8301ZM77.0176 36.6035V37.5742H73.0186V36.6035H77.0176ZM74.3721 34.8057H75.6367V42.168C75.6367 42.4186 75.6755 42.6077 75.7529 42.7354C75.8304 42.863 75.9307 42.9473 76.0537 42.9883C76.1768 43.0293 76.3089 43.0498 76.4502 43.0498C76.555 43.0498 76.6644 43.0407 76.7783 43.0225C76.8968 42.9997 76.9857 42.9814 77.0449 42.9678L77.0518 44C76.9515 44.0319 76.8193 44.0615 76.6553 44.0889C76.4958 44.1208 76.3021 44.1367 76.0742 44.1367C75.7643 44.1367 75.4795 44.0752 75.2197 43.9521C74.96 43.8291 74.7526 43.624 74.5977 43.3369C74.4473 43.0452 74.3721 42.6533 74.3721 42.1611V34.8057Z" fill="#6C6E77"/>
</g>
<defs>
<clipPath id="clip0_335_156">
<rect width="395" height="56" fill="white"/>
</clipPath>
</defs>
</svg>
